<svg xmlns="http://www.w3.org/2000/svg" viewBox="0 0 64 64" id="fork-and-knife"><circle cx="32" cy="32" r="32" fill="#77c68d"></circle><path fill="#fff" d="M33.44 11.5c-1.06 0-1.92.86-1.92 1.92v5.01c0 1.76-1.03 3.28-2.52 4v-8.28a1.92 1.92 0 0 0-3.84 0v8.28a4.444 4.444 0 0 1-2.52-4v-5.01a1.92 1.92 0 0 0-3.84 0v5.01c0 3.9 2.72 7.17 6.36 8.04v24.12a1.92 1.92 0 0 0 3.84 0V26.46c3.64-.87 6.36-4.14 6.36-8.04v-5.01a1.931 1.931 0 0 0-1.92-1.91zm10.59.86c-.24-.1-.49-.15-.75-.15-.5 0-.97.19-1.32.53-.09.09-8.96 8.89-.59 20.11v17.43a1.92 1.92 0 0 0 3.84 0V14.13c-.02-.77-.47-1.47-1.18-1.77z"></path></svg>